# This file uses centimeters as units for non-parametric coordinates.

mtllib roof.mtl
g default
v 0.500000 -1.000000 -0.866025
v -0.500000 -1.000000 -0.866026
v -1.000000 -1.000000 -0.000000
v -0.500000 -1.000000 0.866025
v 0.500000 -1.000000 0.866025
v 1.000000 -1.000000 0.000000
v 0.000000 1.000000 0.000000
vt 0.625000 0.033494
vt 0.375000 0.033494
vt 0.250000 0.250000
vt 0.375000 0.466506
vt 0.625000 0.466506
vt 0.750000 0.250000
vt 0.250000 0.500000
vt 0.333333 0.500000
vt 0.416667 0.500000
vt 0.500000 0.500000
vt 0.583333 0.500000
vt 0.666667 0.500000
vt 0.750000 0.500000
vt 0.500000 1.000000
vn 0.000000 -1.000000 0.000000
vn 0.000000 -1.000000 0.000000
vn 0.000000 -1.000000 0.000000
vn 0.000000 -1.000000 0.000000
vn 0.000000 -1.000000 -0.000000
vn 0.000000 -1.000000 -0.000000
vn 0.000000 0.397360 -0.917663
vn 0.000000 0.397360 -0.917663
vn 0.000000 0.397360 -0.917663
vn -0.794719 0.397360 -0.458832
vn -0.794719 0.397360 -0.458832
vn -0.794719 0.397360 -0.458832
vn -0.794720 0.397360 0.458831
vn -0.794720 0.397360 0.458831
vn -0.794719 0.397360 0.458831
vn -0.000000 0.397360 0.917663
vn -0.000000 0.397360 0.917663
vn -0.000000 0.397360 0.917663
vn 0.794719 0.397360 0.458831
vn 0.794719 0.397360 0.458831
vn 0.794720 0.397360 0.458831
vn 0.794719 0.397360 -0.458831
vn 0.794719 0.397360 -0.458831
vn 0.794720 0.397360 -0.458831
s 1
g master_04_roof
usemtl lambert8SG
f 1/1/1 6/6/2 2/2/3
f 6/6/2 5/5/4 2/2/3
f 5/5/4 4/4/5 2/2/3
f 4/4/5 3/3/6 2/2/3
s off
f 1/7/7 2/8/8 7/14/9
f 2/8/10 3/9/11 7/14/12
f 3/9/13 4/10/14 7/14/15
f 4/10/16 5/11/17 7/14/18
f 5/11/19 6/12/20 7/14/21
f 6/12/22 1/13/23 7/14/24
